<svg width="64" height="54" viewBox="0 0 64 54" fill="none" xmlns="http://www.w3.org/2000/svg">
<path d="M44.0296 31.63C44.1896 30.74 44.2696 29.78 44.2696 28.78C44.2696 27.78 44.1896 26.8 44.0196 25.89C43.0496 20.5 39.3096 17.18 34.0496 16.32C33.1496 16.17 32.2096 16.1 31.2396 16.1C30.2696 16.1 29.2396 16.18 28.3096 16.34C23.0596 17.22 19.3196 20.53 18.3496 25.89C18.1896 26.8 18.0996 27.76 18.0996 28.78C18.0996 29.8 18.1796 30.74 18.3396 31.63C19.2996 36.98 23.0396 40.3 28.3096 41.18C29.2396 41.34 30.2196 41.42 31.2396 41.42C32.2596 41.42 33.1596 41.35 34.0496 41.2C39.3096 40.34 43.0596 37.02 44.0196 31.63H44.0296Z" fill="#FCA700"></path>
<path d="M0.689453 27.36L16.2895 0.620003L31.8895 27.36H0.689453Z" fill="#BF63F3"></path>
<path d="M25.8294 16.98C21.8894 18.36 19.1494 21.41 18.3494 25.89C18.2594 26.37 18.1994 26.85 18.1494 27.36H31.8794L25.8294 16.98Z" fill="#AE2A19"></path>
<path d="M54.7999 31.12H32.8799V53.04H54.7999V31.12Z" fill="#82B536"></path>
<path d="M32.8799 31.13V41.35C33.2799 41.31 33.6699 41.26 34.0599 41.2C39.3199 40.35 43.0599 37.02 44.0299 31.63C44.0599 31.47 44.0899 31.3 44.1099 31.13H32.8799Z" fill="#AE2A19"></path>
<path d="M61.3778 38.8599C61.4147 38.5099 59.6271 34.2573 59.1366 35.6681C59.3992 36.3646 59.5617 37.2851 59.7833 37.9842C59.9348 38.5508 60.0848 39.232 60.2109 39.8257C60.0005 39.6585 59.7722 39.4868 59.5137 39.3086C59.5185 39.4538 59.522 39.6019 59.5971 39.7157C57.2833 37.1545 53.4324 35.6834 50.221 34.1384C50.2248 34.2413 50.0968 34.2679 50.021 34.1853L50.0967 34.0899C48.0135 33.537 46.8117 32.7319 44.6775 32.568C44.6775 32.568 44.9408 32.4831 44.9476 32.4826C39.0946 31.0044 32.0404 29.9077 26.1539 32.8708C21.4267 23.3453 7.79745 24.1855 3.23465 33.9405C3.21165 34.1257 3.50525 33.8764 4.23135 33.1257L4.19325 33.3669C5.48305 31.5243 7.33295 30.3573 8.90605 29.0459C9.07645 28.5601 9.06695 28.5071 9.72965 28.1956C12.5623 28.0571 15.2433 25.6001 19.2951 27.9355C19.254 27.9311 18.9915 27.9326 18.9561 27.9377C20.2965 28.5954 23.1311 30.22 24.0622 31.5498C24.3398 31.9006 24.3446 31.9865 23.8742 31.6369C24.2776 32.2183 24.6768 32.8536 25.043 33.5405C23.8308 34.3255 22.7437 35.4246 21.9692 36.6179L22.0068 36.5928L22.0088 36.6181C22.3487 36.0719 24.4863 34.1714 25.2106 33.8631C20.6722 37.5779 20.6422 40.4819 20.6455 40.274C20.0604 47.0131 31.8667 44.5915 27.1775 34.8771C27.1957 35.126 27.7916 36.2784 27.515 36.6085C27.3072 35.7969 26.9845 35.0422 26.6342 34.3345C26.6925 34.3151 26.7645 34.2356 26.814 34.2507C26.814 34.2507 26.8111 34.2425 26.8097 34.2383C30.0065 32.6082 33.8539 32.4759 37.134 32.9908L37.0643 32.9318C45.4033 32.9617 53.3313 36.4445 60.1774 41.1333C60.1528 41.3073 60.1409 41.4381 60.1532 41.4401C59.4846 41.8466 57.3787 41.7825 56.9425 42.4184L55.847 42.4668C55.4756 42.7791 54.9789 43.0006 55.2123 43.213C55.4456 43.4253 60.4611 43.0152 61.6775 42.1762L61.6609 42.1688C61.6609 42.1688 62.0564 41.951 62.0564 42.0104C62.0343 41.0129 62.0572 39.6028 61.3777 38.8528L61.3778 38.8599ZM26.3903 37.1011C27.5973 47.4737 16.6873 40.8698 25.6946 34.9097C25.9913 35.6039 26.2287 36.3345 26.3903 37.1011ZM59.5971 39.7157C59.647 39.6856 59.6876 39.6689 59.7053 39.6663C59.6945 39.6684 59.6633 39.6789 59.5971 39.7157ZM59.7071 39.6775L59.6772 39.6922C59.7001 39.678 59.7149 39.6671 59.7053 39.6663C59.7162 39.6642 59.7191 39.6654 59.7043 39.6763L59.7071 39.6775Z" fill="#101214"></path>
</svg>
